<?xml version="1.0" standalone="no"?>
<!DOCTYPE svg PUBLIC "-//W3C//DTD SVG 20010904//EN"
 "http://www.w3.org/TR/2001/REC-SVG-20010904/DTD/svg10.dtd">
<svg version="1.0" xmlns="http://www.w3.org/2000/svg"
 width="824.000000pt" height="824.000000pt" viewBox="0 0 824.000000 824.000000"
 preserveAspectRatio="xMidYMid meet">
<metadata>
Created by potrace 1.14, written by Peter Selinger 2001-2017
</metadata>
<g transform="translate(0.000000,824.000000) scale(0.100000,-0.100000)"
fill="#000000" stroke="none">
<path d="M3806 8073 c-2 -2 -56 -6 -121 -8 -65 -3 -121 -7 -125 -10 -7 -4 -6
-29 4 -160 4 -44 9 -114 12 -155 2 -41 6 -104 9 -140 3 -36 7 -100 9 -143 3
-43 8 -81 11 -86 2 -5 33 -8 67 -7 50 2 63 6 69 22 3 10 5 22 3 26 -3 4 -7 52
-10 107 -5 92 -4 100 13 99 34 -1 183 12 211 18 44 11 96 54 117 98 26 53 28
186 3 231 -31 57 -69 89 -121 102 -24 5 -146 10 -151 6z m125 -150 c27 -27 33
-86 14 -127 -20 -42 -41 -48 -172 -57 -24 -1 -45 0 -48 3 -3 3 -8 39 -12 79
-11 137 -16 124 52 127 33 1 65 4 70 6 20 6 78 -13 96 -31z"/>
<path d="M4690 7953 c-25 -43 -47 -82 -49 -87 -2 -6 -12 -19 -23 -30 -10 -11
-18 -23 -18 -28 0 -4 -55 -99 -121 -210 -67 -112 -124 -206 -126 -211 -2 -4
-1 -6 4 -5 7 2 71 -7 123 -17 16 -3 33 19 75 100 12 21 30 23 105 10 25 -4 54
-9 65 -10 54 -8 91 -17 97 -23 5 -6 20 -94 21 -129 0 -11 13 -14 110 -29 l37
-5 -5 43 c-3 24 -7 57 -10 73 -14 93 -17 113 -20 140 -2 17 -6 44 -8 60 -3 17
-8 50 -11 75 -4 25 -9 63 -12 85 -4 22 -7 54 -9 70 -1 17 -6 50 -10 75 -4 25
-8 55 -9 67 -2 22 -12 38 -24 38 -19 2 -109 17 -122 21 -11 3 -29 -19 -60 -73z
m96 -158 c2 -22 6 -56 8 -75 3 -19 8 -61 12 -93 l6 -58 -28 6 c-16 3 -42 8
-59 11 -16 3 -40 7 -53 9 -12 1 -24 4 -27 6 -5 5 33 91 43 99 4 3 18 25 31 50
13 25 30 52 38 61 7 9 10 19 6 24 -5 4 -2 6 6 3 7 -2 15 -21 17 -43z"/>
<path d="M5420 7830 c-13 -27 -22 -51 -19 -53 2 -2 42 -19 89 -37 47 -18 89
-36 93 -40 7 -6 -11 -50 -96 -230 -17 -36 -31 -67 -32 -70 -1 -6 -39 -88 -76
-163 l-28 -59 47 -19 c26 -11 54 -24 63 -29 16 -8 39 4 39 21 0 4 22 54 49
111 27 57 59 126 71 153 12 28 41 88 63 135 22 47 39 88 39 92 -2 7 35 -5 126
-41 29 -12 57 -21 62 -21 9 0 33 47 44 86 6 18 -7 25 -121 69 -71 26 -144 55
-163 63 -100 41 -209 82 -218 82 -5 0 -19 -22 -32 -50z"/>
<path d="M2571 7829 c-220 -27 -330 -202 -260 -413 35 -105 100 -200 160 -235
80 -48 94 -52 174 -53 55 -1 128 17 177 43 41 22 100 84 117 123 20 43 25 139
10 168 -9 16 -14 16 -71 -5 l-63 -22 0 -45 c0 -58 -27 -102 -76 -123 -131 -57
-252 33 -300 221 -25 102 20 187 112 212 56 15 99 6 145 -31 21 -17 45 -28 54
-25 40 13 90 33 96 38 7 8 -15 46 -46 76 -22 22 -88 58 -115 63 -5 1 -19 4
-30 8 -11 4 -49 4 -84 0z"/>
<path d="M1763 7432 c-45 -31 -51 -38 -39 -51 7 -9 102 -128 211 -266 109
-137 201 -253 204 -257 5 -6 88 42 120 68 3 3 -38 62 -64 90 -5 7 -20 25 -32
40 -41 54 -117 149 -123 154 -3 3 -27 34 -55 70 -60 79 -74 96 -100 125 -11
13 -27 33 -35 44 -19 27 -25 26 -87 -17z"/>
<path d="M6344 7343 c-54 -52 -168 -161 -251 -242 l-153 -148 46 -41 c25 -22
51 -43 57 -45 10 -3 26 11 167 149 l65 63 31 -27 c17 -15 53 -46 80 -69 27
-23 60 -51 74 -63 l25 -22 -114 -110 -114 -110 49 -44 c27 -24 54 -43 61 -41
17 3 493 464 493 477 0 6 -75 70 -96 83 -6 3 -53 -34 -104 -84 l-92 -90 -52
48 c-28 26 -72 66 -98 87 -27 22 -48 43 -48 47 0 4 40 47 90 95 l89 87 -27 25
c-15 13 -39 34 -53 47 l-26 23 -99 -95z"/>
<path d="M3908 7015 c-2 -2 -34 -6 -73 -9 -135 -12 -215 -23 -305 -41 -36 -8
-85 -16 -109 -20 -23 -3 -54 -10 -67 -15 -13 -5 -24 -7 -24 -4 0 4 -7 1 -15
-6 -8 -7 -15 -10 -15 -7 0 3 -21 -2 -47 -10 -27 -8 -56 -16 -67 -18 -35 -8
-181 -56 -213 -71 -17 -7 -34 -14 -39 -14 -4 0 -30 -11 -58 -24 -28 -13 -78
-36 -111 -51 -33 -16 -89 -46 -124 -67 -34 -21 -65 -38 -67 -38 -5 0 -65 -41
-74 -50 -3 -3 -18 -14 -35 -24 -32 -21 -32 -21 -89 -70 -30 -26 -62 -40 -140
-61 -175 -46 -246 -87 -230 -130 6 -14 19 -16 85 -13 44 3 79 3 79 1 0 -2 -21
-33 -47 -67 -169 -226 -279 -559 -278 -839 0 -42 -2 -77 -5 -77 -3 0 -4 -26
-3 -57 3 -62 4 -108 3 -189 0 -44 -3 -54 -25 -68 -13 -9 -32 -28 -41 -42 -22
-33 -7 -70 34 -79 21 -4 31 -13 35 -31 2 -13 1 -24 -2 -24 -8 0 -5 -439 3
-447 3 -4 1 -12 -5 -19 -5 -7 -6 -15 -2 -17 5 -3 6 -35 3 -71 -3 -36 -2 -66 3
-66 4 0 5 -5 1 -11 -3 -6 -6 -41 -5 -78 3 -80 2 -118 -2 -151 -2 -14 0 -37 4
-51 4 -15 3 -32 -1 -39 -4 -6 -4 -27 0 -46 4 -19 4 -36 0 -39 -5 -3 -5 -18 0
-34 5 -17 4 -33 -2 -39 -5 -5 -6 -12 -1 -15 5 -3 6 -35 3 -71 -3 -36 -2 -66 3
-66 4 0 5 -5 1 -11 -3 -6 -6 -41 -5 -78 3 -80 2 -118 -2 -151 -2 -14 0 -37 4
-51 4 -15 3 -32 -1 -38 -4 -7 -4 -27 -1 -44 4 -18 4 -49 0 -69 -3 -22 -2 -38
3 -38 5 0 6 -5 2 -11 -3 -6 -6 -41 -5 -78 3 -80 2 -118 -2 -151 -2 -14 0 -37
4 -51 4 -15 3 -31 -3 -37 -5 -5 -6 -12 -1 -15 5 -3 6 -35 3 -71 -3 -36 -2 -66
3 -66 4 0 5 -5 1 -11 -3 -6 -6 -41 -5 -78 3 -80 2 -118 -2 -151 -2 -14 0 -37
4 -51 4 -15 3 -31 -3 -37 -5 -5 -6 -12 -1 -15 5 -3 6 -35 3 -71 -3 -36 -2 -66
3 -66 4 0 5 -5 1 -11 -3 -6 -6 -41 -5 -78 3 -95 3 -109 -1 -174 -2 -31 1 -57
5 -57 5 0 5 -5 1 -11 -3 -6 -6 -41 -5 -78 3 -80 2 -118 -2 -151 -2 -14 0 -37
4 -51 4 -15 3 -31 -3 -37 -5 -5 -6 -12 -1 -15 5 -3 6 -35 3 -71 -3 -36 -2 -66
3 -66 4 0 5 -5 1 -11 -3 -6 -6 -41 -5 -78 3 -80 2 -118 -2 -151 -2 -14 0 -37
4 -51 4 -15 3 -31 -3 -37 -5 -5 -6 -12 -1 -15 5 -3 6 -35 3 -71 -3 -36 -2 -66
3 -66 4 0 5 -5 1 -11 -3 -6 -6 -41 -5 -78 3 -80 2 -118 -2 -151 -2 -14 0 -37
4 -51 4 -15 3 -31 -3 -37 -5 -5 -6 -12 -1 -15 5 -3 6 -35 3 -71 -3 -36 -2 -66
2 -66 4 0 3 -11 -2 -24 -5 -13 -7 -26 -6 -27 2 -2 6 -32 9 -67 7 -67 27 -105
81 -153 39 -35 92 -50 169 -49 34 1 964 1 2067 1 1282 -1 2017 3 2039 9 48 13
108 55 116 80 3 11 10 20 14 20 25 0 31 95 30 536 0 252 0 468 0 479 0 11 0
121 0 245 0 124 0 232 0 240 0 8 0 116 0 240 0 124 0 232 0 240 0 8 0 116 0
240 0 124 0 232 0 240 0 25 0 464 0 475 0 6 0 111 0 235 0 268 0 215 0 490 0
124 0 232 0 240 0 8 0 48 1 87 0 61 4 76 21 92 23 22 20 51 -6 51 -15 0 -17
66 -16 565 1 565 0 602 -19 721 -23 145 -63 277 -126 412 -24 51 -50 100 -59
108 -8 9 -15 20 -15 25 0 5 -4 15 -10 22 -5 7 -31 41 -57 77 -46 62 -233 260
-247 260 -4 0 -19 12 -34 26 -15 14 -39 33 -54 42 -16 9 -28 20 -28 24 0 4 -4
8 -9 8 -5 0 -37 18 -70 40 -95 63 -318 173 -436 215 -27 9 -57 20 -65 23 -8 3
-18 6 -22 7 -5 2 -9 3 -10 5 -2 1 -10 3 -18 5 -8 2 -53 16 -100 30 -95 29
-328 83 -393 91 -23 3 -49 8 -57 10 -8 3 -35 8 -60 10 -25 2 -61 7 -80 10 -80
13 -472 29 -482 19z"/>
<path d="M1378 7005 c-2 -2 -19 -7 -38 -10 -62 -10 -112 -56 -222 -204 -60
-79 -108 -147 -108 -152 0 -4 21 -20 48 -35 26 -15 72 -44 102 -63 30 -20 57
-36 60 -36 3 0 19 -10 37 -23 17 -12 36 -22 42 -22 6 0 11 -4 11 -8 0 -5 15
-16 33 -25 17 -9 61 -36 97 -58 36 -23 86 -54 111 -69 l47 -28 93 126 c52 70
105 145 118 167 58 100 40 197 -48 257 -42 28 -50 30 -111 25 -36 -3 -75 -9
-86 -12 -17 -5 -21 -3 -21 12 4 70 -37 124 -110 146 -28 9 -53 14 -55 12z m25
-146 c32 -14 46 -47 36 -81 -6 -24 -106 -168 -116 -168 -2 0 -33 18 -68 41
l-65 41 25 30 c14 16 25 33 25 37 0 4 22 30 48 59 50 54 71 61 115 41z m275
-147 c47 -31 35 -96 -33 -178 -13 -16 -35 -42 -49 -59 l-24 -30 -24 21 c-12
12 -39 30 -58 39 -67 34 -67 36 2 130 79 106 117 122 186 77z"/>
<path d="M7100 6404 c-91 -46 -170 -84 -176 -84 -6 0 -17 -7 -24 -15 -7 -8
-19 -15 -27 -15 -8 0 -27 -8 -41 -18 -15 -10 -43 -25 -62 -32 -19 -8 -46 -21
-59 -29 -13 -8 -30 -16 -37 -17 -34 -5 -42 -29 -31 -85 5 -30 12 -56 14 -59 5
-6 113 -10 233 -9 19 0 292 -9 304 -10 13 -1 -2 -14 -18 -17 -7 -1 -29 -9 -47
-17 -19 -9 -63 -27 -99 -42 -36 -14 -74 -30 -85 -35 -49 -21 -95 -41 -160 -69
-59 -25 -70 -33 -69 -53 2 -35 14 -92 22 -100 4 -3 43 -9 87 -13 44 -3 98 -8
120 -10 22 -2 76 -6 120 -10 44 -3 103 -8 130 -10 28 -3 78 -7 113 -9 34 -3
82 -8 107 -12 50 -6 49 -8 34 56 -6 25 -12 53 -15 64 -2 10 -5 20 -7 23 -2 2
-120 5 -260 6 -141 2 -260 7 -264 11 -5 4 -3 7 2 5 11 -3 11 -3 160 61 11 4
83 34 160 66 77 32 144 61 148 65 9 7 -8 105 -21 127 -6 9 -72 14 -262 17
-139 3 -255 7 -257 9 -3 2 20 13 50 25 30 11 75 29 99 39 23 11 79 34 123 52
44 17 94 37 110 44 17 7 44 18 61 25 l30 12 -12 57 c-7 31 -13 58 -14 60 -2 1
-3 6 -4 11 0 5 -3 11 -6 14 -3 2 -79 -33 -170 -79z"/>
<path d="M1470 6059 c-19 -5 -48 -11 -65 -15 -48 -10 -60 -12 -60 -14 0 -1 -9
-3 -20 -5 -19 -4 -269 -61 -310 -72 -11 -3 -29 -6 -40 -8 -11 -2 -21 -4 -22
-5 -2 -2 -6 -3 -10 -4 -19 -4 -89 -19 -102 -22 -24 -5 -29 -17 -36 -84 -4 -35
-8 -67 -10 -70 -4 -7 37 -29 225 -118 213 -101 384 -183 413 -197 25 -13 27
-12 28 8 1 24 6 59 12 97 4 22 -3 28 -63 57 -62 29 -67 33 -64 60 6 57 14 118
18 138 3 11 5 35 5 53 1 24 7 35 24 41 23 9 89 22 115 24 6 0 13 10 13 21 2
36 8 80 14 104 6 25 -4 26 -65 11z m-226 -241 c-3 -29 -9 -69 -13 -89 l-6 -37
-65 30 c-138 62 -180 83 -180 92 0 5 2 7 6 4 3 -3 22 -2 42 3 35 9 108 24 162
35 13 3 27 7 29 10 2 2 10 4 18 4 10 0 12 -12 7 -52z"/>
<path d="M6731 5280 c1 -58 5 -72 20 -81 10 -5 19 -7 19 -3 0 3 6 2 13 -4 6
-6 15 -11 19 -11 5 -1 21 -4 38 -7 l30 -6 0 -133 0 -133 -40 -16 c-22 -9 -48
-16 -58 -16 -32 0 -42 -22 -42 -92 0 -37 2 -68 5 -68 5 0 93 28 115 37 8 4 17
7 20 8 3 1 12 4 20 7 8 3 78 27 155 53 77 27 146 52 153 58 6 5 12 7 12 3 0
-3 24 3 53 15 28 11 59 22 67 24 8 2 33 10 55 18 l40 14 2 80 1 81 -136 48
c-75 27 -139 49 -142 50 -3 0 -18 6 -33 12 -16 7 -33 12 -38 12 -5 0 -17 4
-27 10 -20 11 -302 110 -314 110 -4 0 -7 -32 -7 -70z m402 -206 c64 -21 117
-41 117 -44 0 -5 -65 -29 -120 -44 -8 -3 -42 -14 -74 -25 -33 -12 -60 -21 -61
-21 -2 0 -3 41 -4 91 -1 71 1 90 11 87 7 -3 66 -23 131 -44z"/>
<path d="M1460 5262 c-8 -3 -18 -9 -21 -15 -4 -5 -35 -11 -70 -12 -156 -8
-188 -20 -213 -78 -3 -8 -8 -6 -16 6 -41 64 -94 92 -171 90 -64 -1 -149 -40
-149 -68 0 -8 -4 -15 -8 -15 -18 0 -27 -93 -27 -280 l1 -195 339 -1 c187 0
345 1 350 3 6 2 10 34 10 71 l0 67 -133 1 c-72 0 -134 3 -137 5 -8 8 -9 161
-1 195 10 43 35 52 154 57 56 2 105 7 108 10 8 8 12 157 5 161 -3 2 -13 1 -21
-2z m-393 -174 c15 -17 18 -39 19 -134 1 -79 -2 -114 -10 -115 -72 -5 -166 -2
-169 6 -2 9 -1 186 2 210 3 23 32 48 63 54 44 9 73 3 95 -21z"/>
<path d="M7355 4618 c-33 -17 -61 -35 -63 -39 -2 -5 -11 -9 -21 -9 -9 0 -21
-4 -26 -9 -6 -5 -64 -37 -130 -72 l-120 -64 -130 0 -130 -1 -3 -71 -3 -72 60
0 c33 0 65 -2 71 -6 5 -3 10 -3 10 2 0 12 110 5 145 -9 17 -6 37 -18 47 -25 9
-8 22 -16 30 -17 7 -1 51 -22 98 -46 87 -45 141 -72 150 -75 3 0 24 -11 46
-23 l42 -21 1 78 1 78 -42 19 c-24 10 -46 23 -50 29 -4 5 -8 7 -8 3 0 -4 -30
7 -67 24 -95 43 -117 51 -125 50 -5 -1 -8 2 -8 7 0 9 36 27 150 78 30 13 75
34 100 47 l45 22 2 77 c1 42 -1 77 -5 76 -4 0 -34 -14 -67 -31z"/>
<path d="M1448 4575 c-3 -3 -14 -7 -24 -9 -11 -3 -32 -10 -49 -16 -45 -18
-228 -81 -245 -85 -8 -2 -28 -9 -45 -16 -16 -7 -32 -13 -35 -14 -3 0 -36 -12
-75 -25 -38 -13 -72 -25 -75 -25 -3 -1 -13 -5 -22 -8 -44 -17 -54 -20 -66 -23
-8 -1 -16 -5 -19 -8 -6 -6 -8 -155 -2 -160 2 -2 49 -19 104 -39 55 -19 172
-60 260 -92 88 -31 180 -64 205 -72 25 -8 54 -18 65 -23 60 -26 61 -25 59 48
-2 85 0 79 -29 86 -13 3 -37 11 -52 18 -29 12 -38 15 -51 17 -12 2 -9 266 3
267 6 0 18 4 28 7 9 4 25 10 35 14 9 3 19 7 22 8 44 12 45 14 45 85 0 57 -3
70 -16 70 -9 0 -18 -2 -21 -5z m-223 -306 c1 -101 1 -100 -48 -82 -23 8 -46
16 -52 17 -5 2 -17 6 -25 9 -8 3 -41 15 -73 25 -31 10 -59 21 -62 23 -6 6 237
89 250 85 6 -1 10 -36 10 -77z"/>
</g>
</svg>
