<svg width="177" height="206" viewBox="0 0 177 206" fill="none" xmlns="http://www.w3.org/2000/svg">
<path d="M32 74.0003V200.05C32 202.811 34.2386 205 37 205H87.5H139C141.761 205 144 202.812 144 200.051V74.0003C144 31.5035 87.5087 31.0003 87.5 31.0003C87.4912 31.0002 32 30.5037 32 74.0003Z" fill="#FF966F"/>
<path d="M32 74.0003C32 111.301 32 180.955 32 200.05C32 202.811 34.2386 205 37 205H87.5H139C141.761 205 144 202.812 144 200.051C144 180.84 144 110.477 144 74.0003C144 31.5035 87.5087 31.0003 87.5 31.0003C87.4997 31.0003 87.5002 31.0003 87.5 31.0003C87.4912 31.0002 32 30.5037 32 74.0003Z" stroke="#44241D"/>
<path d="M87.5001 145.5C78.5001 145.5 73.0002 150 72.0001 160.5C71.0001 171 102.5 169.5 102.5 160.5C102.5 151.5 96.5001 145.5 87.5001 145.5Z" fill="#FFCA0D"/>
<path d="M87 150C80.6261 149.871 75.4735 154.2 74.5 160.5C73.0389 169.956 100.961 169.956 99.5 160.5C98.5491 154.346 93.2257 150.126 87 150Z" fill="#FF4C13"/>
<path d="M87 154.5C83.0967 154.378 79.5 157 77.5 160.5C74.4968 165.756 99.8577 165.037 96.5 160C94.5 157 90.749 154.617 87 154.5Z" fill="#842814"/>
<path d="M48 45.0099C43.1074 45.2202 36 47.5099 36 48.5099C36 49.5099 43.5167 47.5392 48 48.0099C53.343 48.5709 55.6389 51.858 61 51.5099C66.7539 51.1363 74.5 47.5099 74 47.0099C73.5 46.5099 66.2519 49.2545 61 49.0099C55.5665 48.7568 53.4344 44.7763 48 45.0099Z" fill="#FABF85" stroke="#FABF85"/>
<path d="M114 57.0099C109.107 57.2202 102 59.5099 102 60.5099C102 61.5099 109.517 59.5392 114 60.0099C119.343 60.5709 121.639 63.858 127 63.5099C132.754 63.1363 140.5 59.5099 140 59.0099C139.5 58.5099 132.252 61.2545 127 61.0099C121.567 60.7568 119.434 56.7763 114 57.0099Z" fill="#FABF85" stroke="#FABF85"/>
<path d="M48.9359 76.0212C41.2154 76.4716 30 81.3765 30 83.5185C30 85.6606 41.8612 81.4392 48.9359 82.4475C57.3671 83.6492 60.99 90.6905 69.4498 89.9449C78.5294 89.1446 90.7526 81.3764 89.9637 80.3054C89.1747 79.2343 77.7372 85.1137 69.4498 84.5896C60.8758 84.0474 57.5113 75.5208 48.9359 76.0212Z" fill="#FABF85" stroke="#FABF85"/>
<path d="M119 98.0099C114.107 98.2202 107 100.51 107 101.51C107 102.51 114.517 100.539 119 101.01C124.343 101.571 126.639 104.858 132 104.51C137.754 104.136 145.5 100.51 145 100.01C144.5 99.5099 137.252 102.255 132 102.01C126.567 101.757 124.434 97.7763 119 98.0099Z" fill="#FABF85" stroke="#FABF85"/>
<path d="M50 150.01C45.1074 150.22 38 152.51 38 153.51C38 154.51 45.5167 152.539 50 153.01C55.343 153.571 57.6389 156.858 63 156.51C68.7539 156.136 76.5 152.51 76 152.01C75.5 151.51 68.2519 154.255 63 154.01C57.5665 153.757 55.4344 149.776 50 150.01Z" fill="#FABF85" stroke="#FABF85"/>
<path d="M54.1487 115.018C47.9723 115.404 39 119.608 39 121.444C39 123.281 48.489 119.662 54.1487 120.526C60.8937 121.556 63.792 127.592 70.5598 126.953C77.8235 126.267 87.6021 119.608 86.9709 118.69C86.3397 117.772 77.1898 122.812 70.5598 122.363C63.7006 121.898 61.009 114.589 54.1487 115.018Z" fill="#FABF85" stroke="#FABF85"/>
<path d="M32 161H144V200C144 202.761 141.761 205 139 205H37C34.2386 205 32 202.761 32 200V161Z" fill="#F8B44F"/>
<path d="M77.5 172C77.1478 167.372 86.2959 161 86.2959 161H88.5C88.5 161 82.0474 167.017 86 168.5C89.9526 169.983 109 172.618 111 177.809C113 183 108.5 187.5 103.5 188C98.5 188.5 94.4408 187.517 89.5 189C84.5592 190.483 82.2805 193.368 81.3551 197.584C80.6865 200.631 84.3196 205 84.3196 205H65.5445C65.5445 205 59.1214 195.112 63.5682 189.674C68.0149 184.236 88.0473 184.483 92 183C95.9527 181.517 97.6598 178.798 94.6953 177.315C91.7308 175.831 77.9217 177.543 77.5 172Z" fill="#A96649" stroke="#A96649"/>
<path d="M74.335 162.236C74.335 162.236 71.4431 146.891 73.1771 137.418C74.4026 130.724 78.9665 121.345 78.9665 121.345L81.2822 119.691L81.0892 122.055C81.0892 122.055 76.3914 131.306 75.2999 137.418C73.6079 146.893 76.4578 162.236 76.4578 162.236C76.4578 162.236 77.555 162.214 77.8086 162.945C78.202 164.079 76.4873 162.527 75.4929 162.709C74.5589 162.88 73.7812 164.78 73.5631 163.654C73.5109 163.385 73.511 163.215 73.5631 162.945C73.6988 162.244 74.335 162.236 74.335 162.236Z" fill="#44241D"/>
<path d="M74.335 162.236C74.335 162.236 71.4431 146.891 73.1771 137.418C74.4026 130.724 78.9665 121.345 78.9665 121.345L81.2822 119.691L81.0892 122.055C81.0892 122.055 76.3914 131.306 75.2999 137.418C73.6079 146.893 76.4578 162.236 76.4578 162.236M74.335 162.236H76.4578M74.335 162.236C74.335 162.236 73.6988 162.244 73.5631 162.945C73.511 163.215 73.5109 163.385 73.5631 163.654C73.7812 164.78 74.5589 162.88 75.4929 162.709C76.4873 162.527 78.202 164.079 77.8086 162.945C77.555 162.214 76.4578 162.236 76.4578 162.236" stroke="#44241D"/>
<path d="M72.0193 124.836L80.8963 119.163C80.8963 119.163 76.845 118.528 75.1069 119.636C73.3269 120.771 72.0193 124.836 72.0193 124.836Z" fill="#27724E" stroke="#27724E"/>
<path d="M82.2662 118.012L87.745 112.951C87.745 112.951 84.9152 113.217 83.8422 114.206C82.7433 115.219 82.2662 118.012 82.2662 118.012Z" fill="#27724E" stroke="#27724E"/>
<path d="M82.8261 118.851L89.0725 118.443C89.0725 118.443 86.8225 116.879 85.6 116.957C84.348 117.037 82.8261 118.851 82.8261 118.851Z" fill="#27724E" stroke="#27724E"/>
<path d="M74.5813 112.335C75.0483 112.253 75.5041 112.198 75.9218 112.186C76.6779 112.164 77.2017 112.287 77.4772 112.523C78.1452 113.096 78.833 114.058 79.4396 115.062C78.3663 114.035 77.3749 113.316 76.3514 112.861C75.7714 112.603 75.1873 112.433 74.5813 112.335Z" fill="#27724E" stroke="#27724E"/>
<path d="M68 116.697L81.0394 118.441C81.0394 118.441 77.3022 113.957 74.751 113.612C72.1382 113.259 68 116.697 68 116.697Z" fill="#27724E" stroke="#27724E"/>
<path d="M84.8919 124.875C85.0464 125.655 85.156 126.502 85.2334 127.324C85.1549 127.119 85.073 126.917 84.9879 126.722C84.7014 126.066 84.3597 125.438 83.96 125.019C82.6497 123.643 82.1682 122.579 82.1682 121.582C82.1682 121.093 82.2409 120.644 82.3214 120.299C82.5946 120.524 82.8697 120.771 83.0176 120.953C83.3915 121.41 83.7925 121.96 84.1305 122.542C84.4489 123.09 84.7008 123.911 84.8919 124.875Z" fill="#27724E" stroke="#27724E"/>
<path d="M84.8496 120.793C84.7489 120.691 84.6158 120.538 84.4727 120.367C84.5736 120.395 84.6653 120.424 84.7418 120.456C84.8578 120.503 84.9902 120.551 85.1219 120.599C85.1649 120.614 85.2077 120.63 85.25 120.646C85.428 120.711 85.6088 120.78 85.7869 120.862C86.1459 121.027 86.4672 121.231 86.6981 121.514C87.0718 121.971 87.4276 122.86 87.7437 124.015C88.0545 125.151 88.3096 126.476 88.5118 127.746C88.5456 127.957 88.5778 128.167 88.6085 128.374C87.9078 126.477 87.1752 124.496 87.0054 124.046C86.6431 123.087 86.4002 122.708 85.9451 122.133C85.8503 122.014 85.7586 121.893 85.6667 121.773C85.4197 121.448 85.1704 121.121 84.8496 120.793Z" fill="#27724E" stroke="#27724E"/>
<path d="M61.5984 170.393C61.5984 170.393 55.3908 135.613 59.113 114.143C61.7434 98.9703 71.5401 77.7143 71.5401 77.7143L76.511 73.9644L76.0967 79.3215C76.0967 79.3215 66.0125 100.29 63.6696 114.143C60.0375 135.618 66.155 170.393 66.155 170.393C66.155 170.393 68.5102 170.344 69.0547 172C69.8991 174.568 66.2185 171.052 64.0838 171.464C62.0791 171.851 59.9682 176.05 59.5 173.5C59.3879 172.889 59.4788 172.414 59.9415 172C60.5 171.5 61.5984 170.393 61.5984 170.393Z" fill="#44241D"/>
<path d="M61.5984 170.393C61.5984 170.393 55.3908 135.613 59.113 114.143C61.7434 98.9703 71.5401 77.7143 71.5401 77.7143L76.511 73.9644L76.0967 79.3215C76.0967 79.3215 66.0125 100.29 63.6696 114.143C60.0375 135.618 66.155 170.393 66.155 170.393M61.5984 170.393H66.155M61.5984 170.393C61.5984 170.393 60.5 171.5 59.9415 172C59.4788 172.414 59.3879 172.889 59.5 173.5C59.9682 176.05 62.0791 171.851 64.0838 171.464C66.2185 171.052 69.8991 174.568 69.0547 172C68.5102 170.344 66.155 170.393 66.155 170.393" stroke="#44241D"/>
<path d="M56.6276 85.6251L75.6825 72.768C75.6825 72.768 66.9863 71.3282 63.2554 73.8394C59.4345 76.4113 56.6276 85.6251 56.6276 85.6251Z" fill="#27724E" stroke="#27724E"/>
<path d="M78.623 70.1581L90.3837 58.6891C90.3837 58.6891 84.3094 59.2919 82.0061 61.5336C79.6472 63.8294 78.623 70.1581 78.623 70.1581Z" fill="#27724E" stroke="#27724E"/>
<path d="M79.8249 72.0603L93.2332 71.1364C93.2332 71.1364 88.4035 67.5909 85.7793 67.7685C83.0917 67.9503 79.8249 72.0603 79.8249 72.0603Z" fill="#27724E" stroke="#27724E"/>
<path d="M74.311 65.4571C74.657 66.1281 74.9771 66.7759 75.2657 67.3772C71.6932 63.153 68.743 60.5111 65.6865 59.0764C63.2059 57.912 60.6813 57.5541 57.7507 57.7518C58.3845 57.5567 59.0532 57.3641 59.7376 57.1862C61.5199 56.723 63.3886 56.3651 65.0167 56.3155C66.6656 56.2653 67.9634 56.5353 68.7129 57.2139C70.718 59.0291 72.7575 62.4434 74.311 65.4571Z" fill="#27724E" stroke="#27724E"/>
<path d="M48 67.1779L75.9896 71.1314C75.9896 71.1314 67.9676 60.9676 62.4913 60.1866C56.8828 59.3866 48 67.1779 48 67.1779Z" fill="#27724E" stroke="#27724E"/>
<path d="M85.6651 92.45C85.7612 93.7359 85.8259 94.9649 85.8692 96.0645C85.7646 95.6717 85.6532 95.2663 85.5353 94.8537C85.0923 93.3037 84.5557 91.6433 83.9438 90.1628C83.3366 88.6936 82.6372 87.3559 81.853 86.4865C78.9943 83.3177 77.8394 80.7541 77.8394 78.2501C77.8394 76.9603 78.0391 75.7951 78.24 74.9506C78.3017 74.6914 78.3633 74.4632 78.4188 74.272C78.5849 74.4086 78.7771 74.5695 78.9805 74.7448C79.6021 75.2808 80.2918 75.9215 80.6719 76.4131C81.4888 77.4695 82.3692 78.7437 83.1149 80.0983C83.8498 81.4334 84.4064 83.3792 84.8206 85.5867C85.2329 87.7843 85.4969 90.2002 85.6651 92.45Z" fill="#27724E" stroke="#27724E"/>
<path d="M82.0805 74.8449C81.9885 74.7228 81.8993 74.6036 81.8144 74.4897C81.8502 74.4957 81.8864 74.5018 81.9229 74.5081C82.6981 74.6413 83.5888 74.8356 84.1632 75.0832C84.4025 75.1864 84.6735 75.2903 84.9539 75.3978C85.0479 75.4338 85.1429 75.4703 85.2381 75.5072C85.6235 75.6568 86.026 75.8196 86.4257 76.0134C87.2273 76.4022 87.9947 76.9051 88.5614 77.6379C89.4443 78.7798 90.2338 80.9071 90.9143 83.5332C91.5898 86.1399 92.1418 89.1703 92.5777 92.0592C92.9578 94.5789 93.2486 96.9838 93.4557 98.8947C92.97 97.5049 92.393 95.8544 91.8022 94.1653C90.2732 89.7936 88.6505 85.16 88.2804 84.1254C87.5251 82.0144 87.0333 81.2078 86.0902 79.9512C85.8736 79.6626 85.6697 79.3799 85.4684 79.1009C84.9449 78.3752 84.4392 77.6743 83.7751 76.9582C83.342 76.4912 82.6622 75.6172 82.0805 74.8449Z" fill="#27724E" stroke="#27724E"/>
<path d="M100.006 162.709C100.006 162.709 102.898 147.363 101.164 137.891C99.9389 131.197 95.3749 121.818 95.3749 121.818L93.0592 120.164L93.2522 122.527C93.2522 122.527 97.9501 131.779 99.0415 137.891C100.734 147.366 97.8837 162.709 97.8837 162.709C97.8837 162.709 96.7865 162.687 96.5328 163.418C96.1394 164.551 97.8541 163 98.8486 163.182C99.7825 163.352 100.56 165.252 100.778 164.127C100.831 163.858 100.83 163.687 100.778 163.418C100.643 162.716 100.006 162.709 100.006 162.709Z" fill="#44241D"/>
<path d="M100.006 162.709C100.006 162.709 102.898 147.363 101.164 137.891C99.9389 131.197 95.3749 121.818 95.3749 121.818L93.0592 120.164L93.2522 122.527C93.2522 122.527 97.9501 131.779 99.0415 137.891C100.734 147.366 97.8837 162.709 97.8837 162.709M100.006 162.709H97.8837M100.006 162.709C100.006 162.709 100.643 162.716 100.778 163.418C100.83 163.687 100.831 163.858 100.778 164.127C100.56 165.252 99.7825 163.352 98.8486 163.182C97.8541 163 96.1394 164.551 96.5328 163.418C96.7865 162.687 97.8837 162.709 97.8837 162.709" stroke="#44241D"/>
<path d="M102.322 125.308L93.4452 119.636C93.4452 119.636 97.4964 119.001 99.2345 120.109C101.015 121.243 102.322 125.308 102.322 125.308Z" fill="#27724E" stroke="#27724E"/>
<path d="M92.0753 118.484L86.5964 113.424C86.5964 113.424 89.4262 113.69 90.4992 114.679C91.5981 115.692 92.0753 118.484 92.0753 118.484Z" fill="#27724E" stroke="#27724E"/>
<path d="M91.5154 119.323L85.2689 118.916C85.2689 118.916 87.5189 117.352 88.7414 117.43C89.9935 117.51 91.5154 119.323 91.5154 119.323Z" fill="#27724E" stroke="#27724E"/>
<path d="M99.7602 112.808C99.2931 112.725 98.8373 112.671 98.4197 112.658C97.6635 112.637 97.1397 112.76 96.8642 112.996C96.1963 113.569 95.5085 114.531 94.9018 115.535C95.9751 114.507 96.9665 113.789 97.99 113.334C98.5701 113.076 99.1542 112.905 99.7602 112.808Z" fill="#27724E" stroke="#27724E"/>
<path d="M106.341 117.169L93.3021 118.914C93.3021 118.914 97.0392 114.429 99.5905 114.085C102.203 113.732 106.341 117.169 106.341 117.169Z" fill="#27724E" stroke="#27724E"/>
<path d="M89.4496 125.348C89.295 126.128 89.1854 126.975 89.108 127.796C89.1865 127.591 89.2684 127.39 89.3535 127.195C89.64 126.538 89.9817 125.911 90.3815 125.491C91.6917 124.116 92.1733 123.052 92.1733 122.055C92.1733 121.566 92.1005 121.117 92.0201 120.772C91.7468 120.997 91.4718 121.244 91.3238 121.425C90.9499 121.883 90.549 122.433 90.2109 123.015C89.8926 123.563 89.6406 124.384 89.4496 125.348Z" fill="#27724E" stroke="#27724E"/>
<path d="M89.4919 121.266C89.5925 121.163 89.7256 121.011 89.8687 120.84C89.7678 120.867 89.6762 120.897 89.5997 120.928C89.4837 120.976 89.3513 121.024 89.2195 121.072C89.1766 121.087 89.1337 121.103 89.0915 121.118C88.9135 121.184 88.7326 121.253 88.5545 121.335C88.1955 121.5 87.8742 121.703 87.6433 121.986C87.2696 122.444 86.9138 123.333 86.5977 124.488C86.287 125.624 86.0318 126.949 85.8296 128.218C85.7959 128.43 85.7637 128.64 85.733 128.846C86.4336 126.949 87.1662 124.968 87.3361 124.519C87.6983 123.56 87.9413 123.18 88.3963 122.606C88.4912 122.486 88.5828 122.366 88.6747 122.245C88.9217 121.921 89.1711 121.594 89.4919 121.266Z" fill="#27724E" stroke="#27724E"/>
<path d="M116.703 171.464C116.703 171.464 122.911 136.684 119.189 115.214C116.558 100.042 106.762 78.7858 106.762 78.7858L101.791 75.0358L102.205 80.393C102.205 80.393 112.289 101.362 114.632 115.214C118.264 136.689 112.147 171.464 112.147 171.464C112.147 171.464 109.792 171.415 109.247 173.071C108.403 175.64 112.083 172.123 114.218 172.536C116.223 172.923 117.892 177.229 118.36 174.678C118.472 174.068 118.472 173.682 118.36 173.071C118.069 171.481 116.703 171.464 116.703 171.464Z" fill="#44241D"/>
<path d="M116.703 171.464C116.703 171.464 122.911 136.684 119.189 115.214C116.558 100.042 106.762 78.7858 106.762 78.7858L101.791 75.0358L102.205 80.393C102.205 80.393 112.289 101.362 114.632 115.214C118.264 136.689 112.147 171.464 112.147 171.464M116.703 171.464H112.147M116.703 171.464C116.703 171.464 118.069 171.481 118.36 173.071C118.472 173.682 118.472 174.068 118.36 174.678C117.892 177.229 116.223 172.923 114.218 172.536C112.083 172.123 108.403 175.64 109.247 173.071C109.792 171.415 112.147 171.464 112.147 171.464" stroke="#44241D"/>
<path d="M121.674 86.6966L102.619 73.8395C102.619 73.8395 111.315 72.3996 115.046 74.9109C118.867 77.4828 121.674 86.6966 121.674 86.6966Z" fill="#27724E" stroke="#27724E"/>
<path d="M99.6788 71.2294L87.9181 59.7604C87.9181 59.7604 93.9924 60.3632 96.2957 62.6049C98.6546 64.9007 99.6788 71.2294 99.6788 71.2294Z" fill="#27724E" stroke="#27724E"/>
<path d="M98.477 73.1316L85.0686 72.2077C85.0686 72.2077 89.8983 68.6622 92.5225 68.8398C95.2101 69.0216 98.477 73.1316 98.477 73.1316Z" fill="#27724E" stroke="#27724E"/>
<path d="M103.991 66.5285C103.645 67.1995 103.325 67.8474 103.036 68.4486C106.609 64.2245 109.559 61.5826 112.615 60.1478C115.096 58.9834 117.62 58.6255 120.551 58.8232C119.917 58.6281 119.249 58.4355 118.564 58.2576C116.782 57.7944 114.913 57.4365 113.285 57.387C111.636 57.3368 110.338 57.6068 109.589 58.2853C107.584 60.1005 105.544 63.5148 103.991 66.5285Z" fill="#27724E" stroke="#27724E"/>
<path d="M130.302 68.2494L102.312 72.2029C102.312 72.2029 110.334 62.0392 115.81 61.2581C121.419 60.4582 130.302 68.2494 130.302 68.2494Z" fill="#27724E" stroke="#27724E"/>
<path d="M92.6367 93.5214C92.5406 94.8073 92.4759 96.0363 92.4326 97.1359C92.5372 96.7432 92.6486 96.3378 92.7665 95.9251C93.2095 94.3751 93.7461 92.7148 94.358 91.2343C94.9652 89.765 95.6646 88.4273 96.4488 87.558C99.3075 84.3891 100.462 81.8255 100.462 79.3215C100.462 78.0317 100.263 76.8665 100.062 76.022C100 75.7628 99.9385 75.5347 99.883 75.3434C99.717 75.48 99.5247 75.6409 99.3213 75.8162C98.6997 76.3522 98.01 76.9929 97.6299 77.4845C96.813 78.5409 95.9326 79.8151 95.1869 81.1697C94.452 82.5049 93.8954 84.4506 93.4812 86.6581C93.0689 88.8557 92.8049 91.2716 92.6367 93.5214Z" fill="#27724E" stroke="#27724E"/>
<path d="M96.2213 75.9162C96.3133 75.794 96.4025 75.6749 96.4874 75.561C96.4516 75.567 96.4154 75.5731 96.3789 75.5794C95.6037 75.7126 94.713 75.9069 94.1386 76.1545C93.8993 76.2577 93.6283 76.3616 93.3479 76.4691C93.254 76.5051 93.1589 76.5416 93.0637 76.5785C92.6783 76.728 92.2758 76.8909 91.8761 77.0847C91.0745 77.4735 90.3071 77.9764 89.7404 78.7092C88.8575 79.8511 88.0681 81.9784 87.3875 84.6045C86.712 87.2111 86.16 90.2416 85.7241 93.1305C85.344 95.6502 85.0532 98.0551 84.8462 99.966C85.3319 98.5762 85.9088 96.9257 86.4996 95.2366C88.0286 90.8649 89.6513 86.2313 90.0214 85.1967C90.7767 83.0857 91.2685 82.2791 92.2116 81.0224C92.4282 80.7338 92.6321 80.4512 92.8334 80.1722C93.3569 79.4465 93.8626 78.7456 94.5267 78.0295C94.9598 77.5625 95.6396 76.6885 96.2213 75.9162Z" fill="#27724E" stroke="#27724E"/>
<path d="M19.0971 96.1862V102.715L22.6049 103.884V107.538L5.16316 101.351V97.3798L22.6049 91.3385V95.0413L19.0971 96.1862ZM16.1008 97.1606L9.28001 99.4261L16.1008 101.716V97.1606Z" fill="#44241D"/>
<path d="M15.6867 85.0615H22.6049V88.6424H5.16316L5.16316 79.2882C5.16316 77.8103 5.56104 76.6816 6.3568 75.9021C7.25 75.0252 8.4274 74.5867 9.88901 74.5867C12.0002 74.5867 13.4375 75.5773 14.2007 77.5586C14.6392 76.438 15.1833 75.756 15.8329 75.5124C16.3038 75.3337 17.871 75.2038 20.5343 75.1226C21.2002 75.1064 21.6711 74.8546 21.9472 74.3674H22.6049V78.2163C21.9391 78.5736 20.9566 78.7522 19.6574 78.7522C19.3326 78.7522 18.9347 78.7441 18.4637 78.7279C18.1389 78.7279 17.9035 78.7279 17.7573 78.7279C16.3769 78.7279 15.6867 79.4668 15.6867 80.9446V85.0615ZM12.6904 85.0615V80.7254C12.6904 79.816 12.5443 79.1826 12.2519 78.8253C11.8784 78.3868 11.2613 78.1676 10.4006 78.1676C9.57233 78.1676 8.97957 78.3868 8.62229 78.8253C8.31372 79.1988 8.15944 79.8322 8.15944 80.7254V85.0615H12.6904Z" fill="#44241D"/>
<path d="M19.8577 58.5745L19.0602 65.0541L22.4066 66.5761L21.9602 70.2028L5.3671 62.2641L5.85212 58.3232L23.939 54.1246L23.4867 57.7996L19.8577 58.5745ZM16.7583 59.2328L9.6971 60.7784L16.2019 63.754L16.7583 59.2328Z" fill="#44241D"/>
<path d="M25.4294 49.231L10.6008 40.048L15.2054 33.7883C16.2544 32.3624 17.4334 31.4835 18.7425 31.1518C20.1412 30.7803 21.3928 30.9365 22.4974 31.6206C23.1325 32.0139 23.5741 32.5063 23.8222 33.0979C24.0661 33.6679 24.1678 34.4449 24.1272 35.4289C26.2292 34.4838 27.9982 34.4558 29.4341 35.3451C30.7319 36.1488 31.4535 37.2716 31.5986 38.7134C31.72 39.9691 31.2129 41.3688 30.0774 42.9125L25.4294 49.231ZM15.2701 38.7409L18.6252 40.8187L20.9491 37.6594C21.9403 36.312 21.8767 35.292 20.7583 34.5994C19.64 33.9068 18.5852 34.2342 17.594 35.5817L15.2701 38.7409ZM21.1725 42.3962L25.0039 44.7689L27.5444 41.3153C28.5933 39.8894 28.4827 38.7831 27.2124 37.9965C25.9284 37.2013 24.7619 37.5167 23.713 38.9426L21.1725 42.3962Z" fill="#44241D"/>
<path d="M31.2498 19.1095L42.1028 32.7634L39.1267 34.7549L28.2737 21.101L31.2498 19.1095Z" fill="#44241D"/>
<path d="M56.873 13.9342L53.6591 15.0751C52.4328 13.3772 50.8708 12.865 48.9731 13.5387C47.5498 14.044 46.689 14.9861 46.3907 16.3651C46.1428 17.5714 46.3596 18.9826 47.041 20.5987C47.8109 22.4243 48.8109 23.6693 50.0412 24.3336C51.1076 24.9013 52.2529 24.9678 53.4772 24.5331C54.5332 24.1582 55.2614 23.5901 55.6617 22.8286C56.062 22.0671 56.1044 21.1661 55.7887 20.1255L59.0715 18.9601C59.7847 20.9434 59.6536 22.719 58.6783 24.2867C57.8452 25.6491 56.4721 26.6699 54.5591 27.349C52.1104 28.2183 49.8593 28.054 47.8058 26.8562C46.0306 25.8176 44.6414 24.1086 43.6381 21.7294C42.4896 19.0059 42.3651 16.6243 43.2645 14.5846C44.0407 12.7951 45.5001 11.52 47.6427 10.7594C50.1832 9.85753 52.4541 10.0062 54.4554 11.2054C55.4452 11.8002 56.2511 12.7098 56.873 13.9342Z" fill="#44241D"/>
<path d="M78.6852 15.5724L79.1174 21.7692L75.5427 21.979L74.3291 4.57952L82.0137 4.12832C83.9591 4.01409 85.4468 4.45542 86.4768 5.4523C87.3842 6.32624 87.8944 7.57325 88.0074 9.19331C88.1396 11.0888 87.7075 12.5945 86.7109 13.7103C85.835 14.689 84.6513 15.2221 83.1598 15.3097L78.6852 15.5724ZM78.4768 12.5834L81.8084 12.3878C83.689 12.2773 84.5688 11.3554 84.4479 9.62192C84.3259 7.87224 83.3246 7.05262 81.444 7.16304L78.1124 7.35865L78.4768 12.5834Z" fill="#44241D"/>
<path d="M106.175 19.8387L99.7394 18.7414L97.8905 21.983L94.2885 21.3688L103.85 5.31403L107.764 5.98139L110.257 24.0915L106.607 23.4692L106.175 19.8387ZM105.809 16.7383L104.93 9.67241L101.319 15.9726L105.809 16.7383Z" fill="#44241D"/>
<path d="M128.676 14.8104L122.626 27.928L119.288 26.6318L125.338 13.5143L120.387 11.5921L121.642 8.87129L134.654 13.9236L133.399 16.6444L128.676 14.8104Z" fill="#44241D"/>
<path d="M147.615 33.565L142.397 29.0226L136.706 34.5264L134.005 32.1752L146.542 20.05L149.243 22.4011L144.55 26.9396L149.75 31.4661L154.443 26.9276L157.162 29.2948L144.625 41.42L141.924 39.0688L147.615 33.565Z" fill="#44241D"/>
<path d="M153.856 63.6625L153.169 60.5213L165.907 55.1794L151.935 54.8814L151.242 51.7164L167.344 43.7497L168.156 47.4621L155.869 52.4733L169.312 52.745L170.067 56.1956L157.782 61.3302L171.228 61.5023L172.04 65.2147L153.856 63.6625Z" fill="#44241D"/>
<path d="M157.277 83.482V76.9535L153.77 75.7842V72.1302L171.211 78.3176V82.2883L153.77 88.3296V84.6269L157.277 83.482ZM160.274 82.5076L167.094 80.2421L160.274 77.9522V82.5076Z" fill="#44241D"/>
<path d="M160.225 98.9932H153.77V95.4123H160.225L171.211 89.6146V93.6097L163.514 97.1662L171.211 100.504V104.499L160.225 98.9932Z" fill="#44241D"/>
</svg>
